<?xml version="1.0" encoding="utf-8"?>
<!-- Generator: Adobe Illustrator 22.1.0, SVG Export Plug-In . SVG Version: 6.00 Build 0)  -->
<svg version="1.1" id="icons" xmlns="http://www.w3.org/2000/svg" xmlns:xlink="http://www.w3.org/1999/xlink" x="0px" y="0px"
	 viewBox="0 0 110 110" style="enable-background:new 0 0 110 110;" xml:space="preserve">
<style type="text/css">
	.st0{fill:#75C266;}
	.st1{fill:#2B8A68;}
	.st2{fill:#B9224B;}
	.st3{fill:none;stroke:#313537;stroke-miterlimit:10;}
	.st4{fill:none;stroke:#DBDCD5;stroke-width:2;stroke-miterlimit:10;}
	.st5{fill:none;stroke:#2B8A68;stroke-width:2.4;stroke-miterlimit:10;}
	.st6{fill:none;stroke:#2B8A68;stroke-width:1.4;stroke-linecap:round;stroke-miterlimit:10;}
	.st7{fill:none;stroke:#F0B638;stroke-width:2;stroke-linecap:round;stroke-miterlimit:10;}
	.st8{fill:#F0B638;}
	.st9{fill:none;stroke:#F0B638;stroke-width:1.4;stroke-linecap:round;stroke-miterlimit:10;}
</style>
<g>
	<path class="st0" d="M16.5,21.9c1.3-1.3,8.9-3.8,16.2-4.9c7.8-1.2,23.2-1.1,28-1.2c8.8-0.2,13.8-4.3,14.5-4
		c0.7,0.2,1.6,5.2,2.9,10.7c1.4,6.2,5.9,18.3,7.8,24.2s6.4,18.3,7.6,20.7c1.6,3.2,3.8,9.3,3.7,9.8c-0.2,0.9-6.4,4.8-11.8,6.3
		c-3.3,1-13,2.6-17.6,2.9c-3.8,0.2-11.6,1.1-16.4,1.9c-3.5,0.6-10.7,4.8-11.6,4.8c-1,0-1.2,1.7-1.2,3.1c0,2.4-7.6-15-8.6-20.1
		c-1.1-5.7-6-17.6-6.8-19.6c-2.3-5.9-6.8-21.6-8.2-27.1C14.8,28,16,22.4,16.5,21.9z"/>
	<path class="st1" d="M18.8,42.5c0,0,1.9-2.4,2.7-3.7c0.5-0.9,6.3-3.2,13.7-4.8c8.9-2,20.4-1.8,27.4-2.7c11.2-1.5,16.5-3.7,16.5-3.7
		s-0.9-4.1-1.6-7.1c-0.6-2.7-1.3-9-2.3-8.7c-1,0.3-4.5,2.3-9.1,3.3s-16.8,0.9-21.9,1.1s-12.4,0.7-17.8,2.1
		c-6.1,1.6-9.9,3.4-10.3,4.8c-0.4,1.1-1,5-0.9,6.1C15.3,30.7,18.8,42.5,18.8,42.5z"/>
	<path class="st2" d="M20.1,35c0,0,3.7-2.6,9.4-3.9c6.1-1.4,16.8-2.6,17.5-3c0.5-0.4-3.2-11.9-3.2-11.9s-8,0.1-13.2,1.2
		c-6.4,1.4-14.1,3.5-14.1,5C16.5,23.2,20.1,35,20.1,35z"/>
	<path class="st3" d="M16.5,21.9c1.3-1.3,8.9-3.8,16.2-4.9c7.8-1.2,23.2-1.1,28-1.2c8.8-0.2,13.8-4.3,14.5-4
		c0.7,0.2,1.6,5.2,2.9,10.7c1.4,6.2,5.9,18.3,7.8,24.2s6.4,18.3,7.6,20.7c1.6,3.2,3.8,9.3,3.7,9.8c-0.2,0.9-6.4,4.8-11.8,6.3
		c-3.3,1-13,2.6-17.6,2.9c-3.8,0.2-11.6,0.9-16.4,1.9c-6.8,1.5-11.6,5.4-11.8,4.7c-0.5-2.2-4.8-12.3-6.8-19.9
		c-1.3-5.1-5.2-15.9-6.7-19.5c-1.5-3.6-4.8-13.1-6.2-18.5C18.9,30.4,16,22.4,16.5,21.9z"/>
	<path class="st3" d="M16.5,21.9c-1,1.2-1.7,5-1.4,7.1s3.3,12.1,4.3,15.2c1,3.1,4.3,13.5,5.5,16.2s4.5,12.9,5.2,15.9
		c1.4,6.1,7.8,20.4,8.6,20.9c0.9,0.6,8.1-1.7,13.8-3.1c5.4-1.3,11.2-1.7,18.1-2.1c6.4-0.4,13.3-2.1,16.9-3.3
		c3.6-1.2,9.2-3.7,9.5-4.5c0.2-0.7-1.5-3.2-1.5-5.3"/>
	<path class="st3" d="M39.3,97.2c-1.1-2.6,0.2-4,0.2-4"/>
	<path class="st3" d="M39.1,95.1c4.3-0.5,7.3-2.5,12.6-3.9c4.4-1.2,11.8-1.8,17.5-2c5.9-0.2,12-1.6,16-2.6
		c7.5-1.8,10.7-4.8,10.7-4.8"/>
	<path class="st4" d="M22.2,26.2c2.7-1,4.1-2.1,7.1-2.6c4.2-0.7,7.4-0.8,9.7-1.4"/>
	<path class="st4" d="M50.1,20.5c2.6-0.4,4.3-0.4,6.4-0.5c2.9-0.1,5.3-0.3,7.7-0.7c4.3-0.7,7-1.9,8.3-2.3"/>
	<path class="st4" d="M51.1,24.6c2.3-0.4,4.3-0.5,6.4-0.6c2-0.1,5.3-0.5,7.7-0.8c3.8-0.5,6.7-1.7,8.3-2.3"/>
	<path class="st4" d="M60,28c2-0.3,5.2-0.6,6.7-0.8c4-0.7,6.2-1.6,8.1-2.1"/>
	<path class="st5" d="M26.6,42.7c1.7-0.6,2.3-1.1,4.3-1.7c2.6-0.8,5.8-1.4,5.8-1.4"/>
	<path class="st5" d="M40.1,38.9c0,0,3.4-1.3,6.7-1.4c3.2-0.1,9-0.2,11-0.8"/>
	<path class="st5" d="M28.7,48.4c2.1-0.8,3.8-1.3,4.8-1.7"/>
	<path class="st5" d="M36.7,45.8c1.5-0.4,5.6-1.3,6.9-1.7"/>
	<path class="st5" d="M47.4,43.3c1-0.1,3.6,0,5.7-0.2c2-0.2,4.4-0.6,5.8-1.2"/>
	<path class="st5" d="M30.9,54.2c2.9-1,6.1-2.2,9.3-3.2c4.3-1.3,8.2-0.7,11.3-1.7"/>
	<path class="st6" d="M84.5,72.7c0,0-7.2,2.9-9.3,3.3c-2.8,0.5-10.8-0.4-13.7,0.4c-2.9,0.7-12.4,4.8-12.4,4.8"/>
	<path class="st7" d="M49.3,80.7c0.4-1,8.8-23.3,9.1-23.8s7.8,0,8.3-0.2c0.5-0.2,4.6-13.2,4.6-13.2"/>
	<path class="st8" d="M65.9,46.6c-0.3-1.2,6.7-8.8,7.4-8.6c0.7,0.2,1.2,10.3,0.6,11c-0.4,0.5-2.8-1.2-3.9-1.7
		C69.1,47,66,47.1,65.9,46.6z"/>
	<path class="st1" d="M77.9,71.3c0.6-1,10.9-1.6,11.3-0.9c0.4,0.7-6.4,8.2-7.3,8.3c-0.6,0.1-1.1-2.8-1.6-3.9
		C79.8,73.8,77.6,71.8,77.9,71.3z"/>
	<path class="st9" d="M69.7-3.8c1-5,2.9-11.4,3.3-17.1"/>
	<path class="st9" d="M106-8.6c-3.5,3.6-8.6,8-12.2,12.5"/>
	<path class="st9" d="M108.9,30.9c4.7-1.9,11.1-3.9,16.1-6.6"/>
	<path class="st9" d="M10.2,6.9C6,4,0.8-0.3-4.2-3"/>
	<path class="st9" d="M-2.6,39.4c-5.1-0.2-11.7-1.1-17.4-0.7"/>
	<path class="st9" d="M22.6,128.4c1.8-4.7,4.8-10.7,6.3-16.2"/>
	<path class="st9" d="M86.3,107.5c3,4.1,6.3,9.9,10.1,14.2"/>
	<path class="st9" d="M57.1,131.7c0.2-5.1,0.8-11.5,0.4-17.3"/>
	<path class="st9" d="M7.7,95.6c-3.6,3.6-8.8,7.8-12.4,12.2"/>
	<path class="st9" d="M123.3,97.2c-4.5-2.3-10.1-6-15.4-8.1"/>
	<path class="st9" d="M112.6,60.2c5.1,0.1,11.7,0.9,17.4,0.3"/>
	<path class="st9" d="M35-21.3c1.4,3.6,2.9,13.5,3.8,16.9"/>
	<path class="st9" d="M-18.3,75.4c3.4-1.8,13.2-4.3,16.4-5.6"/>
</g>
</svg>
