<svg id="scroll.svg" xmlns="http://www.w3.org/2000/svg" xmlns:xlink="http://www.w3.org/1999/xlink" width="41" height="28" viewBox="0 0 41 28">
  <defs>
    <style>
      .cls-1 {
        fill: #cacaca;
        fill-rule: evenodd;
        filter: url(#filter);
      }

      .cls-1, .cls-2 {
        opacity: 0.6;
      }

      .cls-2 {
        font-size: 237.801px;
        fill: #e3e3dd;
        font-family: Amatic;
        font-weight: 700;
      }
    </style>
    <filter id="filter" x="716" y="667" width="4" height="24" filterUnits="userSpaceOnUse">
      <feFlood result="flood" flood-color="#e3e3dd"/>
      <feComposite result="composite" operator="in" in2="SourceGraphic"/>
      <feBlend result="blend" in2="SourceGraphic"/>
    </filter>
  </defs>
  <path id="scroll.svg-2" data-name="scroll.svg" class="cls-1" d="M718.139,667.3a23.632,23.632,0,0,1,1.523,10.114,30.383,30.383,0,0,1-1.059,6.123s1.6,0.6,1.4,1a44.693,44.693,0,0,1-3.983,6.479c-0.214-.131.431-4.894,0.519-7.575,0.011-.354,1.22-0.136,1.22-0.136a31.856,31.856,0,0,0,1.06-6.532,36.542,36.542,0,0,0-1.439-9.058c-0.185-.665.554-0.969,0.759-0.412" transform="translate(-679 -663)"/>
  <text id="scroll" class="cls-2" transform="matrix(0.082, 0, 0, 0.08, -0.307, 11.326)">scroll</text>
</svg>
